<svg width="124" height="21" viewBox="0 0 124 21" fill="none" xmlns="http://www.w3.org/2000/svg">
<path d="M10 0L12.2451 6.90983H19.5106L13.6327 11.1803L15.8779 18.0902L10 13.8197L4.12215 18.0902L6.36729 11.1803L0.489435 6.90983H7.75486L10 0Z" fill="#FFCE0C"/>
<path d="M30 0L32.2451 6.90983H39.5106L33.6327 11.1803L35.8779 18.0902L30 13.8197L24.1221 18.0902L26.3673 11.1803L20.4894 6.90983H27.7549L30 0Z" fill="#FFCE0C"/>
<path d="M50 1.61804L51.7696 7.06434L51.8819 7.40983H52.2451H57.9717L53.3388 10.7758L53.0449 10.9894L53.1572 11.3348L54.9268 16.7812L50.2939 13.4152L50 13.2016L49.7061 13.4152L45.0732 16.7812L46.8428 11.3348L46.9551 10.9894L46.6612 10.7758L42.0283 7.40983H47.7549H48.1181L48.2304 7.06434L50 1.61804Z" fill="white" stroke="#FFCE0C"/>
<path d="M70 1.61804L71.7696 7.06434L71.8819 7.40983H72.2451H77.9717L73.3388 10.7758L73.0449 10.9894L73.1572 11.3348L74.9268 16.7812L70.2939 13.4152L70 13.2016L69.7061 13.4152L65.0732 16.7812L66.8428 11.3348L66.9551 10.9894L66.6612 10.7758L62.0283 7.40983H67.7549H68.1181L68.2304 7.06434L70 1.61804Z" fill="white" stroke="#FFCE0C"/>
<path d="M90 1.61804L91.7696 7.06434L91.8819 7.40983H92.2451H97.9717L93.3388 10.7758L93.0449 10.9894L93.1572 11.3348L94.9268 16.7812L90.2939 13.4152L90 13.2016L89.7061 13.4152L85.0732 16.7812L86.8428 11.3348L86.9551 10.9894L86.6612 10.7758L82.0283 7.40983H87.7549H88.1181L88.2304 7.06434L90 1.61804Z" fill="white" stroke="#FFCE0C"/>
<path d="M104.273 5.62V5.046H106.345V15H105.715V5.62H104.273ZM108.274 14.538C110.029 13.3247 111.41 12.1533 112.418 11.024C113.436 9.89467 113.944 8.812 113.944 7.776C113.944 7.09467 113.762 6.53933 113.398 6.11C113.044 5.68067 112.46 5.466 111.648 5.466C110.836 5.466 110.216 5.71333 109.786 6.208C109.357 6.70267 109.114 7.356 109.058 8.168H108.442C108.508 7.14133 108.825 6.34333 109.394 5.774C109.964 5.20467 110.715 4.92 111.648 4.92C112.498 4.92 113.193 5.158 113.734 5.634C114.285 6.11 114.56 6.81933 114.56 7.762C114.56 8.92867 114.024 10.1047 112.95 11.29C111.886 12.4753 110.668 13.5207 109.296 14.426H114.882V14.958H108.274V14.538ZM115.937 12.48V11.99L121.271 5.088H121.985V11.934H123.581V12.48H121.985V15H121.369V12.48H115.937ZM121.383 5.844L116.679 11.934H121.383V5.844Z" fill="black"/>
</svg>
