<svg width="125" height="21" viewBox="0 0 125 21" fill="none" xmlns="http://www.w3.org/2000/svg">
<path d="M10 0L12.2451 6.90983H19.5106L13.6327 11.1803L15.8779 18.0902L10 13.8197L4.12215 18.0902L6.36729 11.1803L0.489435 6.90983H7.75486L10 0Z" fill="#FFCE0C"/>
<path d="M30 0L32.2451 6.90983H39.5106L33.6327 11.1803L35.8779 18.0902L30 13.8197L24.1221 18.0902L26.3673 11.1803L20.4894 6.90983H27.7549L30 0Z" fill="#FFCE0C"/>
<path d="M50 1.61804L51.7696 7.06434L51.8819 7.40983H52.2451H57.9717L53.3388 10.7758L53.0449 10.9894L53.1572 11.3348L54.9268 16.7812L50.2939 13.4152L50 13.2016L49.7061 13.4152L45.0732 16.7812L46.8428 11.3348L46.9551 10.9894L46.6612 10.7758L42.0283 7.40983H47.7549H48.1181L48.2304 7.06434L50 1.61804Z" fill="#FFCE0C" stroke="#FFCE0C"/>
<path d="M70 1.61804L71.7696 7.06434L71.8819 7.40983H72.2451H77.9717L73.3388 10.7758L73.0449 10.9894L73.1572 11.3348L74.9268 16.7812L70.2939 13.4152L70 13.2016L69.7061 13.4152L65.0732 16.7812L66.8428 11.3348L66.9551 10.9894L66.6612 10.7758L62.0283 7.40983H67.7549H68.1181L68.2304 7.06434L70 1.61804Z" fill="white" stroke="#FFCE0C"/>
<path d="M90 1.61804L91.7696 7.06434L91.8819 7.40983H92.2451H97.9717L93.3388 10.7758L93.0449 10.9894L93.1572 11.3348L94.9268 16.7812L90.2939 13.4152L90 13.2016L89.7061 13.4152L85.0732 16.7812L86.8428 11.3348L86.9551 10.9894L86.6612 10.7758L82.0283 7.40983H87.7549H88.1181L88.2304 7.06434L90 1.61804Z" fill="white" stroke="#FFCE0C"/>
<path d="M104.273 5.62V5.046H106.345V15H105.715V5.62H104.273ZM110.598 9.862C109.945 9.694 109.455 9.40467 109.128 8.994C108.802 8.58333 108.638 8.08867 108.638 7.51C108.638 6.74467 108.923 6.124 109.492 5.648C110.071 5.172 110.869 4.934 111.886 4.934C112.904 4.934 113.697 5.172 114.266 5.648C114.845 6.124 115.134 6.74467 115.134 7.51C115.134 8.07933 114.971 8.574 114.644 8.994C114.318 9.40467 113.828 9.694 113.174 9.862C113.874 10.0113 114.42 10.31 114.812 10.758C115.214 11.206 115.414 11.766 115.414 12.438C115.414 13.3247 115.097 14.0293 114.462 14.552C113.837 15.0653 112.978 15.322 111.886 15.322C110.794 15.322 109.936 15.0653 109.31 14.552C108.685 14.0293 108.372 13.3247 108.372 12.438C108.372 11.766 108.568 11.206 108.96 10.758C109.362 10.3007 109.908 10.002 110.598 9.862ZM114.518 7.552C114.518 6.88933 114.28 6.376 113.804 6.012C113.328 5.648 112.689 5.466 111.886 5.466C111.084 5.466 110.444 5.648 109.968 6.012C109.492 6.36667 109.254 6.88467 109.254 7.566C109.254 8.21 109.492 8.71867 109.968 9.092C110.444 9.456 111.084 9.638 111.886 9.638C112.689 9.638 113.328 9.45133 113.804 9.078C114.28 8.70467 114.518 8.196 114.518 7.552ZM111.886 10.142C111.037 10.142 110.337 10.3287 109.786 10.702C109.245 11.0753 108.974 11.6493 108.974 12.424C108.974 13.1613 109.236 13.74 109.758 14.16C110.29 14.58 111 14.79 111.886 14.79C112.773 14.79 113.478 14.58 114 14.16C114.523 13.74 114.784 13.1613 114.784 12.424C114.784 11.6587 114.514 11.0893 113.972 10.716C113.431 10.3333 112.736 10.142 111.886 10.142ZM116.579 12.48V11.99L121.913 5.088H122.627V11.934H124.223V12.48H122.627V15H122.011V12.48H116.579ZM122.025 5.844L117.321 11.934H122.025V5.844Z" fill="black"/>
</svg>
