<svg width="121" height="21" viewBox="0 0 121 21" fill="none" xmlns="http://www.w3.org/2000/svg">
<path d="M10 0L12.2451 6.90983H19.5106L13.6327 11.1803L15.8779 18.0902L10 13.8197L4.12215 18.0902L6.36729 11.1803L0.489435 6.90983H7.75486L10 0Z" fill="#FFCE0C"/>
<path d="M30 0L32.2451 6.90983H39.5106L33.6327 11.1803L35.8779 18.0902L30 13.8197L24.1221 18.0902L26.3673 11.1803L20.4894 6.90983H27.7549L30 0Z" fill="#FFCE0C"/>
<path d="M50 0L52.2451 6.90983H59.5106L53.6327 11.1803L55.8779 18.0902L50 13.8197L44.1221 18.0902L46.3673 11.1803L40.4894 6.90983H47.7549L50 0Z" fill="#FFCE0C"/>
<path d="M70 1.61804L71.7696 7.06434L71.8819 7.40983H72.2451H77.9717L73.3388 10.7758L73.0449 10.9894L73.1572 11.3348L74.9268 16.7812L70.2939 13.4152L70 13.2016L69.7061 13.4152L65.0732 16.7812L66.8428 11.3348L66.9551 10.9894L66.6612 10.7758L62.0283 7.40983H67.7549H68.1181L68.2304 7.06434L70 1.61804Z" fill="white" stroke="#FFCE0C"/>
<path d="M90 1.61804L91.7696 7.06434L91.8819 7.40983H92.2451H97.9717L93.3388 10.7758L93.0449 10.9894L93.1572 11.3348L94.9268 16.7812L90.2939 13.4152L90 13.2016L89.7061 13.4152L85.0732 16.7812L86.8428 11.3348L86.9551 10.9894L86.6612 10.7758L82.0283 7.40983H87.7549H88.1181L88.2304 7.06434L90 1.61804Z" fill="white" stroke="#FFCE0C"/>
<path d="M104.651 14.538C106.406 13.3247 107.787 12.1533 108.795 11.024C109.813 9.89467 110.321 8.812 110.321 7.776C110.321 7.09467 110.139 6.53933 109.775 6.11C109.421 5.68067 108.837 5.466 108.025 5.466C107.213 5.466 106.593 5.71333 106.163 6.208C105.734 6.70267 105.491 7.356 105.435 8.168H104.819C104.885 7.14133 105.202 6.34333 105.771 5.774C106.341 5.20467 107.092 4.92 108.025 4.92C108.875 4.92 109.57 5.158 110.111 5.634C110.662 6.11 110.937 6.81933 110.937 7.762C110.937 8.92867 110.401 10.1047 109.327 11.29C108.263 12.4753 107.045 13.5207 105.673 14.426H111.259V14.958H104.651V14.538ZM112.832 7.65C112.916 6.80067 113.242 6.13333 113.812 5.648C114.39 5.16267 115.151 4.92 116.094 4.92C116.7 4.92 117.218 5.032 117.648 5.256C118.077 5.47067 118.404 5.76467 118.628 6.138C118.852 6.51133 118.964 6.936 118.964 7.412C118.964 8.00933 118.782 8.52733 118.418 8.966C118.054 9.39533 117.498 9.652 116.752 9.736V9.82C117.47 9.932 118.049 10.2073 118.488 10.646C118.926 11.0847 119.146 11.6727 119.146 12.41C119.146 13.194 118.884 13.838 118.362 14.342C117.848 14.8367 117.092 15.084 116.094 15.084C115.151 15.084 114.372 14.832 113.756 14.328C113.149 13.824 112.785 13.11 112.664 12.186H113.28C113.392 12.8767 113.69 13.4413 114.176 13.88C114.661 14.3093 115.3 14.524 116.094 14.524C116.896 14.524 117.503 14.3233 117.914 13.922C118.334 13.5207 118.544 13.0027 118.544 12.368C118.544 11.6027 118.25 11.0287 117.662 10.646C117.083 10.2633 116.252 10.072 115.17 10.072H114.904V9.526H115.184C117.293 9.51667 118.348 8.826 118.348 7.454C118.348 6.85667 118.147 6.376 117.746 6.012C117.354 5.648 116.798 5.466 116.08 5.466C115.38 5.466 114.787 5.65267 114.302 6.026C113.826 6.39 113.541 6.93133 113.448 7.65H112.832Z" fill="black"/>
</svg>
