<svg width="123" height="46" viewBox="0 0 123 46" fill="none" xmlns="http://www.w3.org/2000/svg">
<path d="M8.928 31.512C7.02933 31.512 5.376 31.1173 3.968 30.328C2.56 29.5173 1.504 28.344 0.8 26.808L3.2 24.728C3.69067 25.88 4.32 26.9147 5.088 27.832C5.856 28.7493 6.67733 29.464 7.552 29.976C8.42667 30.488 9.26933 30.744 10.08 30.744C10.8267 30.744 11.4453 30.552 11.936 30.168C12.4267 29.7627 12.672 29.1867 12.672 28.44C12.672 27.5653 12.2667 26.68 11.456 25.784C10.6453 24.888 9.41867 23.7787 7.776 22.456C6.368 21.2827 5.248 20.3013 4.416 19.512C3.584 18.7227 2.86933 17.8373 2.272 16.856C1.67467 15.8747 1.376 14.8613 1.376 13.816C1.376 12.6 1.77067 11.544 2.56 10.648C3.37067 9.752 4.42667 9.08 5.728 8.632C7.02933 8.16267 8.416 7.928 9.888 7.928C11.2747 7.928 12.5973 8.12 13.856 8.504C15.136 8.86667 16.2027 9.41067 17.056 10.136V15.032L16.544 15.064C16.3307 13.6987 15.904 12.5253 15.264 11.544C14.6453 10.5413 13.888 9.784 12.992 9.272C12.1173 8.76 11.2 8.504 10.24 8.504C9.408 8.504 8.69333 8.76 8.096 9.272C7.52 9.784 7.232 10.456 7.232 11.288C7.232 12.056 7.456 12.8027 7.904 13.528C8.37333 14.232 8.94933 14.8933 9.632 15.512C10.3147 16.1307 11.232 16.888 12.384 17.784C13.6213 18.744 14.6027 19.5653 15.328 20.248C16.0747 20.9093 16.704 21.6667 17.216 22.52C17.7493 23.352 18.016 24.2267 18.016 25.144C18.016 26.5093 17.5893 27.672 16.736 28.632C15.904 29.592 14.7947 30.3173 13.408 30.808C12.0213 31.2773 10.528 31.512 8.928 31.512ZM19.39 31C19.7527 30.232 19.9767 29.592 20.062 29.08C20.1687 28.5467 20.222 27.864 20.222 27.032V26.008V13.528V12.504C20.222 11.672 20.1687 11 20.062 10.488C19.9767 9.95467 19.7527 9.304 19.39 8.536H31.614C33.342 8.55733 34.7927 8.90933 35.966 9.592C37.1393 10.2533 38.014 11.1387 38.59 12.248C39.166 13.3573 39.454 14.5627 39.454 15.864C39.454 17.848 38.91 19.4907 37.822 20.792C36.734 22.072 35.326 23.0107 33.598 23.608C31.8913 24.2053 30.0567 24.504 28.094 24.504C27.7527 24.504 27.262 24.4827 26.622 24.44V26.008C26.622 27.2453 26.6647 28.1627 26.75 28.76C26.8353 29.336 27.07 30.0827 27.454 31H19.39ZM26.622 23.832C27.902 23.832 29.0007 23.4267 29.918 22.616C30.8567 21.784 31.5607 20.7387 32.03 19.48C32.5207 18.2 32.766 16.8667 32.766 15.48C32.766 13.6667 32.3607 12.1413 31.55 10.904C30.7393 9.64533 29.598 9.02667 28.126 9.048H26.622V23.832ZM40.7338 31C41.0964 30.232 41.3204 29.592 41.4058 29.08C41.5124 28.5467 41.5658 27.864 41.5658 27.032V26.008V13.528V12.504C41.5658 11.672 41.5124 11 41.4058 10.488C41.3204 9.95467 41.0964 9.304 40.7338 8.536H48.7978C48.4138 9.45333 48.1791 10.2 48.0938 10.776C48.0084 11.352 47.9658 12.2693 47.9658 13.528V30.392H49.8538C51.0271 30.392 52.4351 29.848 54.0778 28.76C55.7204 27.672 57.2884 26.4453 58.7818 25.08L57.4698 31H40.7338ZM57.765 31C58.9597 29.8693 60.037 28.536 60.997 27C61.9783 25.464 62.661 24.0667 63.045 22.808L67.013 9.304L66.405 8.536H74.501C74.4797 8.792 74.469 9.13333 74.469 9.56C74.469 10.1787 74.5223 10.744 74.629 11.256C74.757 11.7467 74.9917 12.504 75.333 13.528L79.461 26.008C79.8663 27.2453 80.2077 28.1627 80.485 28.76C80.7623 29.336 81.253 30.0827 81.957 31H73.893C73.957 30.552 73.989 30.168 73.989 29.848C73.989 29.3787 73.9357 28.9413 73.829 28.536C73.7437 28.1307 73.573 27.5333 73.317 26.744C73.253 26.616 73.1997 26.488 73.157 26.36C73.1357 26.232 73.1037 26.1147 73.061 26.008L71.589 21.592H63.941L63.589 22.808C63.269 23.8533 63.109 25.0373 63.109 26.36C63.109 28.1947 63.4183 29.7413 64.037 31H57.765ZM71.429 21.048L68.933 13.528C68.549 12.3973 68.2717 11.6187 68.101 11.192C67.9303 10.7653 67.6957 10.328 67.397 9.88L64.101 21.048H71.429ZM89.4905 31.512C87.5918 31.512 85.9385 31.1173 84.5305 30.328C83.1225 29.5173 82.0665 28.344 81.3625 26.808L83.7625 24.728C84.2532 25.88 84.8825 26.9147 85.6505 27.832C86.4185 28.7493 87.2398 29.464 88.1145 29.976C88.9892 30.488 89.8318 30.744 90.6425 30.744C91.3892 30.744 92.0078 30.552 92.4985 30.168C92.9892 29.7627 93.2345 29.1867 93.2345 28.44C93.2345 27.5653 92.8292 26.68 92.0185 25.784C91.2078 24.888 89.9812 23.7787 88.3385 22.456C86.9305 21.2827 85.8105 20.3013 84.9785 19.512C84.1465 18.7227 83.4318 17.8373 82.8345 16.856C82.2372 15.8747 81.9385 14.8613 81.9385 13.816C81.9385 12.6 82.3332 11.544 83.1225 10.648C83.9332 9.752 84.9892 9.08 86.2905 8.632C87.5918 8.16267 88.9785 7.928 90.4505 7.928C91.8372 7.928 93.1598 8.12 94.4185 8.504C95.6985 8.86667 96.7652 9.41067 97.6185 10.136V15.032L97.1065 15.064C96.8932 13.6987 96.4665 12.5253 95.8265 11.544C95.2078 10.5413 94.4505 9.784 93.5545 9.272C92.6798 8.76 91.7625 8.504 90.8025 8.504C89.9705 8.504 89.2558 8.76 88.6585 9.272C88.0825 9.784 87.7945 10.456 87.7945 11.288C87.7945 12.056 88.0185 12.8027 88.4665 13.528C88.9358 14.232 89.5118 14.8933 90.1945 15.512C90.8772 16.1307 91.7945 16.888 92.9465 17.784C94.1838 18.744 95.1652 19.5653 95.8905 20.248C96.6372 20.9093 97.2665 21.6667 97.7785 22.52C98.3118 23.352 98.5785 24.2267 98.5785 25.144C98.5785 26.5093 98.1518 27.672 97.2985 28.632C96.4665 29.592 95.3572 30.3173 93.9705 30.808C92.5838 31.2773 91.0905 31.512 89.4905 31.512ZM99.9525 31C100.315 30.232 100.539 29.592 100.625 29.08C100.731 28.5467 100.785 27.864 100.785 27.032V26.008V13.528V12.504C100.785 11.672 100.731 11 100.625 10.488C100.539 9.95467 100.315 9.304 99.9525 8.536H108.017C107.633 9.45333 107.398 10.2 107.312 10.776C107.227 11.352 107.185 12.2693 107.185 13.528V19.128H114.545V13.528V12.504C114.545 11.672 114.491 11 114.385 10.488C114.299 9.95467 114.075 9.304 113.713 8.536H121.777C121.393 9.45333 121.158 10.2 121.073 10.776C120.987 11.352 120.945 12.2693 120.945 13.528V26.008C120.945 27.2453 120.987 28.1627 121.073 28.76C121.158 29.336 121.393 30.0827 121.777 31H113.713C114.075 30.232 114.299 29.592 114.385 29.08C114.491 28.5467 114.545 27.864 114.545 27.032V26.008V19.672H107.185V26.008C107.185 27.2453 107.227 28.1627 107.312 28.76C107.398 29.336 107.633 30.0827 108.017 31H99.9525Z" fill="black"/>
</svg>
