<svg width="25" height="25" viewBox="0 0 25 25" fill="none" xmlns="http://www.w3.org/2000/svg">
<path d="M7.50694 25C6.8188 25 6.22951 24.755 5.73905 24.265C5.2486 23.775 5.00379 23.1867 5.00462 22.5C5.00462 21.8125 5.24985 21.2237 5.7403 20.7337C6.23076 20.2437 6.81963 19.9992 7.50694 20C8.19507 20 8.78437 20.245 9.27482 20.735C9.76527 21.225 10.0101 21.8133 10.0092 22.5C10.0092 23.1875 9.76402 23.7762 9.27357 24.2662C8.78311 24.7562 8.19424 25.0008 7.50694 25ZM20.0185 25C19.3304 25 18.7411 24.755 18.2506 24.265C17.7602 23.775 17.5154 23.1867 17.5162 22.5C17.5162 21.8125 17.7614 21.2237 18.2519 20.7337C18.7423 20.2437 19.3312 19.9992 20.0185 20C20.7066 20 21.2959 20.245 21.7864 20.735C22.2768 21.225 22.5216 21.8133 22.5208 22.5C22.5208 23.1875 22.2756 23.7762 21.7851 24.2662C21.2947 24.7562 20.7058 25.0008 20.0185 25ZM6.44345 5L9.44623 11.25H18.2043L21.645 5H6.44345ZM5.25485 2.5H23.7094C24.189 2.5 24.5539 2.71375 24.8042 3.14125C25.0544 3.56875 25.0648 4.00083 24.8354 4.4375L20.3938 12.4375C20.1645 12.8542 19.8567 13.1771 19.4705 13.4062C19.0843 13.6354 18.6622 13.75 18.2043 13.75H8.88321L7.50694 16.25H22.5208V18.75H7.50694C6.56857 18.75 5.85958 18.3383 5.37997 17.515C4.90036 16.6917 4.87951 15.8742 5.31741 15.0625L7.00647 12L2.50231 2.5H0V0H4.06626L5.25485 2.5Z" fill="black"/>
</svg>
