<svg width="246" height="24" viewBox="0 0 246 24" fill="none" xmlns="http://www.w3.org/2000/svg">
<g clip-path="url(#clip0_319_84)">
<path d="M7.20005 21.6L12 10.4M6.82245 15.2C6.03384 14.3208 5.59842 13.181 5.60005 12V11.2C5.60005 9.71478 6.19005 8.29039 7.24025 7.24019C8.29045 6.18999 9.71484 5.59999 11.2 5.59999H12.8C14.2853 5.59999 15.7096 6.18999 16.7598 7.24019C17.8101 8.29039 18.4 9.71478 18.4 11.2V12C18.4 13.273 17.8943 14.4939 16.9942 15.3941C16.094 16.2943 14.8731 16.8 13.6 16.8C12.9013 16.7999 12.2202 16.58 11.6534 16.1714C11.0865 15.7627 10.6626 15.1861 10.4416 14.5232L10.4 14.4M12 23.2C10.5292 23.2 9.07284 22.9103 7.71399 22.3474C6.35515 21.7846 5.12047 20.9596 4.08045 19.9196C3.04044 18.8796 2.21545 17.6449 1.6526 16.286C1.08975 14.9272 0.800049 13.4708 0.800049 12C0.800049 10.5292 1.08975 9.07278 1.6526 7.71393C2.21545 6.35509 3.04044 5.12041 4.08045 4.08039C5.12047 3.04038 6.35515 2.21539 7.71399 1.65254C9.07284 1.08968 10.5292 0.799988 12 0.799988C14.9705 0.799988 17.8192 1.97998 19.9196 4.08039C22.0201 6.1808 23.2 9.02956 23.2 12C23.2 14.9704 22.0201 17.8192 19.9196 19.9196C17.8192 22.02 14.9705 23.2 12 23.2Z" stroke="black"/>
</g>
<path d="M86 7.6875C85.1471 7.6875 84.3133 7.94042 83.6041 8.41429C82.8949 8.88815 82.3422 9.56167 82.0158 10.3497C81.6894 11.1377 81.604 12.0048 81.7704 12.8413C81.9368 13.6779 82.3475 14.4463 82.9506 15.0494C83.5537 15.6525 84.3221 16.0632 85.1587 16.2296C85.9952 16.396 86.8623 16.3106 87.6503 15.9842C88.4383 15.6578 89.1118 15.1051 89.5857 14.3959C90.0596 13.6867 90.3125 12.8529 90.3125 12C90.311 10.8567 89.8562 9.76067 89.0478 8.95225C88.2393 8.14382 87.1433 7.68899 86 7.6875ZM86 15.1875C85.3696 15.1875 84.7533 15.0006 84.2291 14.6503C83.7049 14.3001 83.2964 13.8022 83.0551 13.2198C82.8139 12.6374 82.7508 11.9965 82.8737 11.3781C82.9967 10.7598 83.3003 10.1919 83.7461 9.7461C84.1919 9.30032 84.7598 8.99674 85.3781 8.87375C85.9965 8.75076 86.6374 8.81388 87.2198 9.05513C87.8022 9.29639 88.3001 9.70494 88.6503 10.2291C89.0006 10.7533 89.1875 11.3696 89.1875 12C89.1875 12.8454 88.8517 13.6561 88.2539 14.2539C87.6561 14.8517 86.8454 15.1875 86 15.1875ZM90.5 2.4375H81.5C80.1578 2.43899 78.871 2.97284 77.9219 3.92192C76.9728 4.871 76.439 6.1578 76.4375 7.5V16.5C76.439 17.8422 76.9728 19.129 77.9219 20.0781C78.871 21.0272 80.1578 21.561 81.5 21.5625H90.5C91.8422 21.561 93.129 21.0272 94.0781 20.0781C95.0272 19.129 95.561 17.8422 95.5625 16.5V7.5C95.561 6.1578 95.0272 4.871 94.0781 3.92192C93.129 2.97284 91.8422 2.43899 90.5 2.4375ZM94.4375 16.5C94.4375 17.5443 94.0227 18.5458 93.2842 19.2842C92.5458 20.0227 91.5443 20.4375 90.5 20.4375H81.5C80.4557 20.4375 79.4542 20.0227 78.7158 19.2842C77.9773 18.5458 77.5625 17.5443 77.5625 16.5V7.5C77.5625 6.45571 77.9773 5.45419 78.7158 4.71577C79.4542 3.97734 80.4557 3.5625 81.5 3.5625H90.5C91.5443 3.5625 92.5458 3.97734 93.2842 4.71577C94.0227 5.45419 94.4375 6.45571 94.4375 7.5V16.5ZM91.8125 7.125C91.8125 7.31042 91.7575 7.49168 91.6545 7.64585C91.5515 7.80002 91.4051 7.92018 91.2338 7.99114C91.0625 8.06209 90.874 8.08066 90.6921 8.04449C90.5102 8.00831 90.3432 7.91902 90.2121 7.78791C90.081 7.6568 89.9917 7.48975 89.9555 7.3079C89.9193 7.12604 89.9379 6.93754 90.0089 6.76623C90.0798 6.59493 90.2 6.44851 90.3542 6.3455C90.5083 6.24248 90.6896 6.1875 90.875 6.1875C91.1236 6.1875 91.3621 6.28627 91.5379 6.46209C91.7137 6.6379 91.8125 6.87636 91.8125 7.125Z" fill="black"/>
<path d="M169 8V16C169 17.3261 168.473 18.5979 167.536 19.5355C166.598 20.4732 165.326 21 164 21H156C154.674 21 153.402 20.4732 152.464 19.5355C151.527 18.5979 151 17.3261 151 16V8C151 6.67392 151.527 5.40215 152.464 4.46447C153.402 3.52678 154.674 3 156 3H164C165.326 3 166.598 3.52678 167.536 4.46447C168.473 5.40215 169 6.67392 169 8Z" stroke="black" stroke-width="1.5" stroke-linecap="round" stroke-linejoin="round"/>
<path d="M159 21V12C159 9.812 159.5 8 163 8M157 13H163" stroke="black" stroke-width="1.5" stroke-linecap="round" stroke-linejoin="round"/>
<path d="M245.932 4.56525C245.865 4.39101 245.751 4.24207 245.605 4.13726C245.459 4.03246 245.287 3.9765 245.111 3.97646H241.73C241.257 3.11376 240.584 2.39694 239.777 1.89569C238.969 1.39444 238.055 1.12583 237.122 1.11596C236.427 1.10618 235.737 1.2456 235.093 1.52603C234.449 1.80645 233.864 2.2222 233.372 2.74883C232.865 3.28186 232.463 3.91812 232.19 4.62018C231.916 5.32224 231.776 6.07594 231.777 6.83697V7.56282C227.304 6.29705 223.645 2.39365 223.606 2.35194C223.487 2.22288 223.335 2.13307 223.17 2.09307C223.005 2.05307 222.832 2.06456 222.673 2.12617C222.514 2.18779 222.374 2.29697 222.271 2.44086C222.167 2.58474 222.104 2.75735 222.089 2.93834C221.61 8.63432 223.153 12.4459 224.534 14.6402C225.207 15.7249 226.026 16.6969 226.965 17.5245C225.273 19.6139 222.608 20.7116 222.579 20.7235C222.454 20.7739 222.341 20.8541 222.248 20.958C222.156 21.0619 222.086 21.1869 222.045 21.3236C222.004 21.4603 221.992 21.6053 222.01 21.7476C222.029 21.8899 222.077 22.0259 222.151 22.1454C222.235 22.2789 222.568 22.7473 223.383 23.1847C224.389 23.7259 225.719 24 227.333 24C235.185 24 241.746 17.5138 242.416 9.16828L245.74 5.60457C245.864 5.47114 245.949 5.30118 245.983 5.11619C246.017 4.93119 246 4.73946 245.932 4.56525ZM240.932 8.07056C240.78 8.23443 240.688 8.45218 240.674 8.68318C240.222 16.2027 234.364 22.093 227.333 22.093C226.159 22.093 225.333 21.9261 224.753 21.7259C226.031 20.981 227.815 19.6997 228.962 17.8547C229.029 17.7462 229.075 17.624 229.096 17.4958C229.118 17.3676 229.115 17.2359 229.087 17.1091C229.059 16.9822 229.008 16.8627 228.935 16.7581C228.863 16.6535 228.771 16.5659 228.666 16.5007C228.614 16.4685 223.787 13.3613 223.777 5.05869C225.555 6.60813 228.805 9.01214 232.518 9.68197C232.646 9.70499 232.776 9.698 232.901 9.6615C233.025 9.62499 233.141 9.55984 233.239 9.47058C233.338 9.38132 233.417 9.27008 233.472 9.1446C233.526 9.01912 233.555 8.88241 233.555 8.74397V6.83697C233.554 6.32833 233.648 5.82462 233.831 5.35548C234.014 4.88633 234.283 4.46123 234.622 4.10519C234.946 3.75632 235.333 3.4808 235.759 3.29492C236.184 3.10904 236.64 3.01656 237.1 3.02296C238.506 3.04203 239.821 3.96216 240.371 5.31256C240.44 5.48233 240.554 5.62675 240.699 5.72815C240.843 5.82954 241.013 5.88352 241.185 5.88346H242.963L240.932 8.07056Z" fill="black"/>
<defs>
<clipPath id="clip0_319_84">
<rect width="24" height="24" fill="white"/>
</clipPath>
</defs>
</svg>
