<svg width="117" height="32" viewBox="0 0 117 32" fill="none" xmlns="http://www.w3.org/2000/svg">
<path d="M10.044 26.576C7.908 26.576 6.048 26.132 4.464 25.244C2.88 24.332 1.692 23.012 0.9 21.284L3.6 18.944C4.152 20.24 4.86 21.404 5.724 22.436C6.588 23.468 7.512 24.272 8.496 24.848C9.48 25.424 10.428 25.712 11.34 25.712C12.18 25.712 12.876 25.496 13.428 25.064C13.98 24.608 14.256 23.96 14.256 23.12C14.256 22.136 13.8 21.14 12.888 20.132C11.976 19.124 10.596 17.876 8.748 16.388C7.164 15.068 5.904 13.964 4.968 13.076C4.032 12.188 3.228 11.192 2.556 10.088C1.884 8.984 1.548 7.844 1.548 6.668C1.548 5.3 1.992 4.112 2.88 3.104C3.792 2.096 4.98 1.34 6.444 0.835998C7.908 0.307999 9.468 0.0439994 11.124 0.0439994C12.684 0.0439994 14.172 0.26 15.588 0.692C17.028 1.1 18.228 1.712 19.188 2.528V8.036L18.612 8.072C18.372 6.536 17.892 5.216 17.172 4.112C16.476 2.984 15.624 2.132 14.616 1.556C13.632 0.98 12.6 0.692 11.52 0.692C10.584 0.692 9.78 0.98 9.108 1.556C8.46 2.132 8.136 2.888 8.136 3.824C8.136 4.688 8.388 5.528 8.892 6.344C9.42 7.136 10.068 7.88 10.836 8.576C11.604 9.272 12.636 10.124 13.932 11.132C15.324 12.212 16.428 13.136 17.244 13.904C18.084 14.648 18.792 15.5 19.368 16.46C19.968 17.396 20.268 18.38 20.268 19.412C20.268 20.948 19.788 22.256 18.828 23.336C17.892 24.416 16.644 25.232 15.084 25.784C13.524 26.312 11.844 26.576 10.044 26.576ZM21.8523 31.724C22.2603 30.86 22.5123 30.128 22.6083 29.528C22.7283 28.952 22.7883 28.196 22.7883 27.26V26.108V12.212C22.7883 11.588 22.7163 10.976 22.5723 10.376C22.4523 9.776 22.1643 9.164 21.7083 8.54C23.1483 8.492 24.5763 8.3 25.9923 7.964C27.4323 7.604 28.7643 7.1 29.9883 6.452V13.292C30.6123 11.276 31.4763 9.584 32.5803 8.216C33.6843 6.824 34.9923 6.128 36.5043 6.128C37.9923 6.128 39.2403 6.524 40.2483 7.316C41.2803 8.084 42.0363 9.128 42.5163 10.448C43.0203 11.744 43.2723 13.172 43.2723 14.732C43.2723 16.748 42.9003 18.656 42.1563 20.456C41.4363 22.256 40.3923 23.708 39.0243 24.812C37.6803 25.916 36.1443 26.468 34.4163 26.468C33.5523 26.468 32.7363 26.3 31.9683 25.964C31.2003 25.628 30.5403 25.136 29.9883 24.488V26.108C29.9883 27.524 30.0363 28.556 30.1323 29.204C30.2283 29.852 30.4923 30.692 30.9243 31.724H21.8523ZM32.2563 24.992C33.4083 24.992 34.3203 24.152 34.9923 22.472C35.6643 20.768 36.0003 18.668 36.0003 16.172C36.0003 14.348 35.7963 12.776 35.3883 11.456C34.9803 10.112 34.3923 9.44 33.6243 9.44C32.8563 9.44 32.1243 10.16 31.4283 11.6C30.7323 13.016 30.2523 14.66 29.9883 16.532V23.768C30.7083 24.584 31.4643 24.992 32.2563 24.992ZM44.8445 26C45.2525 25.136 45.5045 24.416 45.6005 23.84C45.7205 23.24 45.7805 22.472 45.7805 21.536V20.384V8.864H45.7445V6.92C45.7445 6.128 45.6965 5.432 45.6005 4.832C45.5045 4.232 45.2045 3.56 44.7005 2.816C46.1165 2.768 47.5445 2.576 48.9845 2.24C50.4245 1.88 51.7445 1.376 52.9445 0.727999V7.064H52.9805V20.384C52.9805 21.776 53.0285 22.808 53.1245 23.48C53.2205 24.128 53.4845 24.968 53.9165 26H44.8445ZM61.2335 26.54C60.1055 26.54 59.0495 26.336 58.0655 25.928C57.0815 25.52 56.2895 24.932 55.6895 24.164C55.1135 23.396 54.8255 22.496 54.8255 21.464C54.8255 20.264 55.1375 19.292 55.7615 18.548C56.3855 17.78 57.1655 17.18 58.1015 16.748C59.0615 16.292 60.3215 15.824 61.8815 15.344C63.3695 14.888 64.5815 14.444 65.5175 14.012C66.4535 13.58 67.2335 13.004 67.8575 12.284C68.4815 11.54 68.7935 10.604 68.7935 9.476C68.7935 8.564 68.5175 7.868 67.9655 7.388C67.4375 6.884 66.7895 6.632 66.0215 6.632C65.1815 6.632 64.4495 6.896 63.8255 7.424C63.2255 7.952 62.9255 8.684 62.9255 9.62C62.9255 10.148 63.0575 10.652 63.3215 11.132C63.5855 11.588 63.9695 11.96 64.4735 12.248C64.1615 12.728 63.7175 13.1 63.1415 13.364C62.5655 13.628 61.9535 13.76 61.3055 13.76C60.3455 13.76 59.5295 13.52 58.8575 13.04C58.1855 12.56 57.8495 11.864 57.8495 10.952C57.8495 9.416 58.5815 8.228 60.0455 7.388C61.5095 6.524 63.2735 6.092 65.3375 6.092C66.8975 6.092 68.3735 6.344 69.7655 6.848C71.1815 7.352 72.3215 8.108 73.1855 9.116C74.0735 10.1 74.5175 11.3 74.5175 12.716V21.464C74.5175 22.352 74.6135 23.228 74.8055 24.092C74.9975 24.932 75.2255 25.568 75.4895 26C73.8335 25.424 72.1415 25.136 70.4135 25.136C69.4775 25.136 68.5895 25.208 67.7495 25.352C66.9335 25.496 65.9615 25.7 64.8335 25.964C64.2095 26.108 63.5735 26.24 62.9255 26.36C62.2775 26.48 61.7135 26.54 61.2335 26.54ZM67.3175 13.436L65.9495 14.516C65.0615 15.188 64.3415 15.788 63.7895 16.316C63.2375 16.844 62.7575 17.468 62.3495 18.188C61.9655 18.884 61.7735 19.664 61.7735 20.528C61.7735 21.992 62.2175 23.072 63.1055 23.768C63.9935 24.44 65.0855 24.776 66.3815 24.776C66.5735 24.776 66.8855 24.752 67.3175 24.704V13.436ZM83.6156 26.576C82.4156 26.576 81.2516 26.408 80.1236 26.072C78.9956 25.736 78.0596 25.22 77.3156 24.524C76.5956 23.804 76.2356 22.916 76.2356 21.86C76.2356 20.924 76.5716 20.204 77.2436 19.7C77.9156 19.172 78.7316 18.908 79.6916 18.908C80.3876 18.908 81.0356 19.052 81.6356 19.34C82.2356 19.628 82.6796 20.036 82.9676 20.564C82.4876 20.756 82.1036 21.092 81.8156 21.572C81.5516 22.052 81.4196 22.556 81.4196 23.084C81.4196 24.092 81.6956 24.86 82.2476 25.388C82.8236 25.892 83.5076 26.144 84.2996 26.144C85.0676 26.144 85.7396 25.916 86.3156 25.46C86.9156 24.98 87.2156 24.356 87.2156 23.588C87.2156 23.132 87.0716 22.616 86.7836 22.04C86.5916 21.488 86.1836 20.936 85.5596 20.384C84.9596 19.808 84.0236 19.052 82.7516 18.116C80.8076 16.7 79.2956 15.464 78.2156 14.408C77.1596 13.328 76.6316 12.224 76.6316 11.096C76.6316 9.344 77.3516 8.072 78.7916 7.28C80.2316 6.464 82.0556 6.056 84.2636 6.056C84.9116 6.056 85.5596 6.092 86.2076 6.164C86.3516 6.164 86.5916 6.188 86.9276 6.236C87.2636 6.284 87.5516 6.32 87.7916 6.344C89.1836 6.584 90.3116 6.704 91.1756 6.704C91.8716 6.704 92.4236 6.62 92.8316 6.452L90.6716 11.96C90.1916 10.256 89.4716 8.96 88.5116 8.072C87.5756 7.16 86.5316 6.704 85.3796 6.704C84.6596 6.704 84.0596 6.908 83.5796 7.316C83.1236 7.7 82.8956 8.24 82.8956 8.936C82.8956 9.536 83.2076 10.136 83.8316 10.736C84.4556 11.336 85.4996 12.164 86.9636 13.22C88.8596 14.54 90.3236 15.728 91.3556 16.784C92.3876 17.84 92.9036 18.968 92.9036 20.168C92.9036 21.392 92.4836 22.496 91.6436 23.48C90.8276 24.44 89.7116 25.196 88.2956 25.748C86.8796 26.3 85.3196 26.576 83.6156 26.576ZM107.029 26C107.437 25.136 107.689 24.416 107.785 23.84C107.905 23.24 107.965 22.472 107.965 21.536V20.384V14.048H107.929V12.176C107.929 11.336 107.821 10.7 107.605 10.268C107.413 9.836 107.149 9.62 106.813 9.62C106.333 9.62 105.769 10.028 105.121 10.844C104.473 11.636 103.849 12.716 103.249 14.084C102.673 15.428 102.241 16.856 101.953 18.368V20.384C101.953 21.776 102.001 22.808 102.097 23.48C102.193 24.128 102.457 24.968 102.889 26H93.8171C94.2251 25.136 94.4771 24.416 94.5731 23.84C94.6931 23.24 94.7531 22.472 94.7531 21.536V20.384V8.864H94.7171V6.92C94.7171 6.128 94.6691 5.432 94.5731 4.832C94.4771 4.232 94.1771 3.56 93.6731 2.816C95.0891 2.768 96.5171 2.576 97.9571 2.24C99.3971 1.88 100.717 1.376 101.917 0.727999V7.064H101.953V16.676C102.337 15.116 102.913 13.532 103.681 11.924C104.449 10.292 105.385 8.924 106.489 7.82C107.593 6.692 108.805 6.128 110.125 6.128C111.973 6.128 113.281 6.812 114.049 8.18C114.817 9.524 115.189 11.084 115.165 12.86L115.129 16.46H115.165V20.384C115.165 21.776 115.213 22.808 115.309 23.48C115.405 24.128 115.669 24.968 116.101 26H107.029Z" fill="black"/>
</svg>
